<?xml version="1.0" encoding="UTF-8"?>
<svg id="Layer_2" data-name="Layer 2" xmlns="http://www.w3.org/2000/svg" viewBox="0 0 394.42 282.03">
  <defs>
    <style>
      .cls-1 {
        fill: #e56b1e;
      }

      .cls-1, .cls-2 {
        stroke-width: 0px;
      }

      .cls-2 {
        fill: #1b263b;
      }
    </style>
  </defs>
  <g id="Layer_1-2" data-name="Layer 1">
    <g>
      <path class="cls-2" d="m197.19,229.43c62.31,0,124.62,0,186.94,0,6.61,0,7.92,1.33,7.97,7.99.01,2.15.05,4.3-.02,6.45-.14,4.7-1.89,6.42-6.6,6.54-8.82.22-17.66.21-26.47.69-17.65.95-34.6,5.47-51.32,10.84-20.79,6.68-41.53,13.44-63.23,16.73-22.15,3.35-44.37,4.03-66.73,2.79-29.33-1.63-57.46-8.66-85.25-17.61-17.27-5.56-34.71-10.66-52.86-12.3-9.72-.88-19.53-.85-29.31-1.08-6.56-.16-7.97-1.46-7.99-8.03,0-2.03-.03-4.06-.01-6.09.05-5.17,1.74-6.91,6.87-6.93,13.85-.03,27.69-.02,41.54-.02,48.82,0,97.65,0,146.47,0v.03Z"/>
      <path class="cls-1" d="m197.09,65.8c-4.55-.07-8.21-3.71-8.34-8.22v-.04s.16-1.84.16-1.84l3.28-50.74c.04-2.77,2.31-4.99,5.09-4.96,2.77.04,4.99,2.32,4.95,5.09l3.38,51.21.06,1.15c-.07,4.67-3.91,8.41-8.58,8.34Z"/>
      <path class="cls-1" d="m151.14,73.94c-4.3,1.49-8.98-.68-10.65-4.87v-.04s-.5-1.78-.5-1.78l-14.27-48.8c-.91-2.62.47-5.48,3.09-6.4,2.62-.91,5.48.48,6.39,3.09l20.69,46.97.45,1.06c1.54,4.41-.8,9.24-5.21,10.77Z"/>
      <path class="cls-1" d="m110.74,97.31c-3.53,2.87-8.67,2.43-11.67-.94l-.03-.03-1.06-1.51-30.1-40.98c-1.75-2.15-1.43-5.31.72-7.07,2.15-1.75,5.31-1.43,7.06.72l35.51,37.06.78.84c2.95,3.62,2.41,8.95-1.21,11.91Z"/>
      <path class="cls-1" d="m80.77,133.09c-2.33,3.91-7.32,5.25-11.29,3.11l-.03-.02-1.52-1.06-42.3-28.21c-2.38-1.42-3.16-4.5-1.75-6.89,1.42-2.38,4.51-3.16,6.89-1.74l46.04,22.68,1.02.52c4.01,2.39,5.33,7.59,2.94,11.6Z"/>
      <path class="cls-1" d="m64.85,176.96c-.86,4.47-5.08,7.44-9.54,6.79h-.04s-1.79-.48-1.79-.48l-49.4-12.04c-2.72-.52-4.51-3.14-4-5.88.52-2.72,3.15-4.51,5.88-3.99l51.02,5.56,1.14.14c4.59.88,7.6,5.31,6.73,9.9Z"/>
      <path class="cls-1" d="m243.06,73.86c-4.25-1.62-6.44-6.29-5.03-10.58v-.04s.79-1.68.79-1.68l20.44-46.56c.98-2.59,3.88-3.89,6.48-2.92,2.59.98,3.89,3.89,2.91,6.48l-14.34,49.28-.34,1.1c-1.66,4.37-6.55,6.56-10.92,4.91Z"/>
      <path class="cls-1" d="m283.49,97.16c-3.44-2.98-3.9-8.12-1.11-11.66l.03-.03,1.3-1.31,35.13-36.76c1.81-2.1,4.98-2.33,7.09-.52,2.1,1.81,2.33,4.99.52,7.08l-30.33,41.4-.69.92c-3.05,3.54-8.4,3.93-11.93.88Z"/>
      <path class="cls-1" d="m313.52,132.88c-2.22-3.97-.89-8.96,2.95-11.33l.03-.02,1.67-.78,45.58-22.53c2.42-1.35,5.48-.49,6.84,1.93,1.35,2.42.48,5.48-1.94,6.83l-42.66,28.53-.97.63c-4.08,2.28-9.24.82-11.51-3.26Z"/>
      <path class="cls-1" d="m329.53,176.72c-.72-4.49,2.23-8.73,6.65-9.64h.04s1.84-.17,1.84-.17l50.54-5.58c2.74-.44,5.31,1.41,5.77,4.16.44,2.74-1.42,5.31-4.16,5.76l-49.84,12.22-1.12.26c-4.61.75-8.96-2.39-9.71-7Z"/>
      <path class="cls-1" d="m312.45,202.91c0,3.63-.17,7.21-.5,10.75H82.93c-.33-3.54-.5-7.12-.5-10.75,0-63.52,51.49-115.01,115.01-115.01s115.01,51.49,115.01,115.01Z"/>
    </g>
  </g>
</svg>