<?xml version="1.0" encoding="UTF-8"?>
<svg id="Layer_2" data-name="Layer 2" xmlns="http://www.w3.org/2000/svg" viewBox="0 0 954.6 417.68">
  <defs>
    <style>
      .cls-1 {
        fill: #e56b1e;
      }

      .cls-1, .cls-2 {
        stroke-width: 0px;
      }

      .cls-2 {
        fill: #1b263b;
      }
    </style>
  </defs>
  <g id="Layer_1-2" data-name="Layer 1">
    <g>
      <path class="cls-2" d="m25.24,344.5h-12.14l-2.15,5.57H0l13.97-31.95h10.59l13.97,31.95h-11.14l-2.15-5.57Zm-2.97-7.76l-3.1-8.03-3.1,8.03h6.21Z"/>
      <path class="cls-2" d="m40.26,318.11h15.75c3.56,0,6.7.65,9.42,1.94,2.72,1.29,4.84,3.14,6.35,5.54,1.51,2.4,2.26,5.23,2.26,8.49s-.75,6.09-2.26,8.49c-1.51,2.4-3.62,4.25-6.35,5.55-2.72,1.29-5.87,1.94-9.42,1.94h-15.75v-31.95Zm15.29,23.55c2.31,0,4.16-.66,5.54-1.99,1.38-1.32,2.08-3.19,2.08-5.59s-.69-4.27-2.08-5.59c-1.38-1.32-3.23-1.99-5.54-1.99h-4.52v15.15h4.52Z"/>
      <path class="cls-2" d="m77.96,318.11h10.77v31.95h-10.77v-31.95Z"/>
      <path class="cls-2" d="m100.87,326.47h-9.36v-8.35h29.49v8.35h-9.36v23.6h-10.77v-23.6Z"/>
      <path class="cls-2" d="m141.86,338.47v11.59h-10.77v-11.73l-12.05-20.22h11.37l6.53,11.05,6.57-11.05h10.41l-12.05,20.36Z"/>
      <path class="cls-2" d="m175,344.5h-12.14l-2.15,5.57h-10.95l13.97-31.95h10.59l13.97,31.95h-11.14l-2.15-5.57Zm-2.97-7.76l-3.1-8.03-3.1,8.03h6.21Z"/>
      <path class="cls-2" d="m235.2,318.11v31.95h-10.77v-11.78h-9.95v11.78h-10.77v-31.95h10.77v11.32h9.95v-11.32h10.77Z"/>
      <path class="cls-2" d="m247.89,348.65c-2.74-1.43-4.88-3.42-6.44-5.96-1.55-2.54-2.33-5.41-2.33-8.6s.78-6.06,2.33-8.6c1.55-2.54,3.7-4.53,6.44-5.96,2.74-1.43,5.83-2.15,9.27-2.15s6.53.72,9.27,2.15c2.74,1.43,4.88,3.42,6.44,5.96,1.55,2.54,2.33,5.41,2.33,8.6s-.78,6.06-2.33,8.6c-1.55,2.54-3.7,4.53-6.44,5.96-2.74,1.43-5.83,2.15-9.27,2.15s-6.53-.72-9.27-2.15Zm12.89-7.55c1.08-.65,1.94-1.58,2.58-2.79.64-1.2.96-2.61.96-4.22s-.32-3.02-.96-4.22-1.5-2.13-2.58-2.79c-1.08-.65-2.29-.98-3.63-.98s-2.55.33-3.63.98c-1.08.66-1.94,1.58-2.58,2.79-.64,1.2-.96,2.61-.96,4.22s.32,3.02.96,4.22c.64,1.2,1.5,2.13,2.58,2.79,1.08.65,2.29.98,3.63.98s2.55-.33,3.63-.98Z"/>
      <path class="cls-2" d="m292.81,342.03h-2.92v8.03h-10.77v-31.95h15.38c2.95,0,5.52.49,7.71,1.46s3.88,2.37,5.07,4.2c1.19,1.83,1.78,3.96,1.78,6.39,0,2.28-.52,4.28-1.55,5.98-1.04,1.71-2.53,3.06-4.47,4.06l6.71,9.86h-11.5l-5.43-8.03Zm4.29-14.63c-.73-.65-1.83-.98-3.29-.98h-3.92v7.49h3.92c1.46,0,2.56-.33,3.29-.98.73-.65,1.1-1.57,1.1-2.76s-.37-2.11-1.1-2.76Z"/>
      <path class="cls-2" d="m313.12,318.11h10.77v31.95h-10.77v-31.95Z"/>
      <path class="cls-2" d="m357.3,341.71v8.35h-29.35v-6.62l14.61-16.98h-14.15v-8.35h28.16v6.62l-14.61,16.98h15.34Z"/>
      <path class="cls-2" d="m367.71,348.65c-2.74-1.43-4.88-3.42-6.44-5.96-1.55-2.54-2.33-5.41-2.33-8.6s.78-6.06,2.33-8.6c1.55-2.54,3.7-4.53,6.44-5.96,2.74-1.43,5.83-2.15,9.27-2.15s6.53.72,9.27,2.15c2.74,1.43,4.88,3.42,6.44,5.96,1.55,2.54,2.33,5.41,2.33,8.6s-.78,6.06-2.33,8.6c-1.55,2.54-3.7,4.53-6.44,5.96s-5.83,2.15-9.27,2.15-6.53-.72-9.27-2.15Zm12.89-7.55c1.08-.65,1.94-1.58,2.58-2.79.64-1.2.96-2.61.96-4.22s-.32-3.02-.96-4.22c-.64-1.2-1.5-2.13-2.58-2.79-1.08-.65-2.29-.98-3.63-.98s-2.55.33-3.63.98c-1.08.66-1.94,1.58-2.58,2.79s-.96,2.61-.96,4.22.32,3.02.96,4.22c.64,1.2,1.5,2.13,2.58,2.79,1.08.65,2.29.98,3.63.98s2.55-.33,3.63-.98Z"/>
      <path class="cls-2" d="m430.42,318.11v31.95h-8.85l-12.14-14.51v14.51h-10.5v-31.95h8.86l12.14,14.51v-14.51h10.5Z"/>
      <path class="cls-2" d="m449.32,318.11h10.77v31.95h-10.77v-31.95Z"/>
      <path class="cls-2" d="m496.79,318.11v31.95h-8.86l-12.14-14.51v14.51h-10.5v-31.95h8.86l12.14,14.51v-14.51h10.5Z"/>
      <path class="cls-2" d="m508.93,326.47h-9.36v-8.35h29.49v8.35h-9.36v23.6h-10.77v-23.6Z"/>
      <path class="cls-2" d="m558.41,341.94v8.12h-26.57v-31.95h25.97v8.12h-15.38v3.74h13.51v7.76h-13.51v4.2h15.98Z"/>
      <path class="cls-2" d="m576.25,342.03h-2.92v8.03h-10.77v-31.95h15.38c2.95,0,5.52.49,7.71,1.46,2.19.97,3.88,2.37,5.07,4.2,1.19,1.83,1.78,3.96,1.78,6.39,0,2.28-.52,4.28-1.55,5.98-1.03,1.71-2.53,3.06-4.47,4.06l6.71,9.86h-11.5l-5.43-8.03Zm4.29-14.63c-.73-.65-1.83-.98-3.29-.98h-3.92v7.49h3.92c1.46,0,2.56-.33,3.29-.98.73-.65,1.09-1.57,1.09-2.76s-.36-2.11-1.09-2.76Z"/>
      <path class="cls-2" d="m628.06,318.11v31.95h-8.86l-12.14-14.51v14.51h-10.5v-31.95h8.86l12.14,14.51v-14.51h10.5Z"/>
      <path class="cls-2" d="m655.04,344.5h-12.14l-2.14,5.57h-10.96l13.97-31.95h10.59l13.97,31.95h-11.14l-2.15-5.57Zm-2.97-7.76l-3.1-8.03-3.1,8.03h6.21Z"/>
      <path class="cls-2" d="m675.39,326.47h-9.36v-8.35h29.49v8.35h-9.36v23.6h-10.77v-23.6Z"/>
      <path class="cls-2" d="m698.31,318.11h10.77v31.95h-10.77v-31.95Z"/>
      <path class="cls-2" d="m721.77,348.65c-2.74-1.43-4.88-3.42-6.44-5.96s-2.33-5.41-2.33-8.6.78-6.06,2.33-8.6,3.7-4.53,6.44-5.96c2.74-1.43,5.83-2.15,9.27-2.15s6.53.72,9.27,2.15c2.74,1.43,4.88,3.42,6.44,5.96s2.33,5.41,2.33,8.6-.78,6.06-2.33,8.6-3.7,4.53-6.44,5.96-5.83,2.15-9.27,2.15-6.53-.72-9.27-2.15Zm12.89-7.55c1.08-.65,1.94-1.58,2.58-2.79.64-1.2.96-2.61.96-4.22s-.32-3.02-.96-4.22c-.64-1.2-1.5-2.13-2.58-2.79-1.08-.65-2.29-.98-3.63-.98s-2.55.33-3.63.98c-1.08.66-1.94,1.58-2.58,2.79s-.96,2.61-.96,4.22.32,3.02.96,4.22c.64,1.2,1.5,2.13,2.58,2.79,1.08.65,2.29.98,3.63.98s2.55-.33,3.63-.98Z"/>
      <path class="cls-2" d="m784.48,318.11v31.95h-8.86l-12.14-14.51v14.51h-10.5v-31.95h8.86l12.14,14.51v-14.51h10.5Z"/>
      <path class="cls-2" d="m811.46,344.5h-12.14l-2.14,5.57h-10.96l13.97-31.95h10.59l13.97,31.95h-11.14l-2.15-5.57Zm-2.97-7.76l-3.1-8.03-3.1,8.03h6.21Z"/>
      <path class="cls-2" d="m826.47,318.11h10.77v23.6h14.42v8.35h-25.2v-31.95Z"/>
      <path class="cls-2" d="m868.33,318.11h10.77v23.6h14.42v8.35h-25.2v-31.95Z"/>
      <path class="cls-2" d="m896.49,318.11h10.77v23.6h14.42v8.35h-25.2v-31.95Z"/>
      <path class="cls-2" d="m947.75,319.57c2.19.97,3.88,2.37,5.07,4.2,1.19,1.83,1.78,3.96,1.78,6.39s-.59,4.56-1.78,6.39c-1.19,1.83-2.88,3.23-5.07,4.2-2.19.97-4.76,1.46-7.71,1.46h-4.61v7.85h-10.77v-31.95h15.38c2.95,0,5.52.49,7.71,1.46Zm-5.11,13.35c.73-.65,1.09-1.57,1.09-2.76s-.36-2.11-1.09-2.76-1.83-.98-3.29-.98h-3.92v7.49h3.92c1.46,0,2.56-.33,3.29-.98Z"/>
    </g>
    <g>
      <path class="cls-2" d="m249.97,408.41c.99,0,1.88-.17,2.67-.5.79-.33,1.45-.81,1.99-1.41.54-.61.96-1.33,1.25-2.17.29-.84.43-1.77.43-2.78v-15.06h3.67v15.06c0,1.46-.23,2.8-.69,4.04-.46,1.24-1.13,2.3-1.99,3.21-.87.9-1.92,1.61-3.15,2.12-1.24.51-2.63.76-4.18.76s-2.94-.25-4.18-.76c-1.24-.51-2.29-1.21-3.16-2.12-.87-.9-1.53-1.97-1.99-3.21-.46-1.24-.69-2.58-.69-4.04v-15.06h3.69v15.04c0,1.02.14,1.95.42,2.79s.7,1.57,1.24,2.18c.54.61,1.21,1.08,1.99,1.41.79.33,1.67.5,2.67.5Z"/>
      <path class="cls-2" d="m267.77,396.21c.38-.4.78-.77,1.2-1.11.42-.33.86-.62,1.33-.86.47-.24.97-.42,1.51-.55s1.11-.2,1.72-.2c.97,0,1.82.16,2.56.49.73.32,1.35.78,1.85,1.36.5.58.87,1.29,1.13,2.11.25.82.38,1.73.38,2.72v11.21h-3.4v-11.21c0-1.26-.29-2.24-.87-2.94-.58-.7-1.46-1.05-2.65-1.05-.87,0-1.68.21-2.43.62s-1.46.97-2.11,1.67v12.91h-3.38v-17.61h2.03c.47,0,.77.23.88.68l.26,1.77Z"/>
      <path class="cls-2" d="m287.46,385.79v25.58h-3.4v-25.58h3.4Z"/>
      <path class="cls-2" d="m299.79,393.48c1.29,0,2.46.21,3.51.63,1.05.42,1.94,1.03,2.67,1.82.73.79,1.3,1.75,1.69,2.86s.59,2.37.59,3.75-.2,2.64-.59,3.76c-.39,1.12-.96,2.07-1.69,2.86-.73.79-1.62,1.39-2.67,1.81-1.05.42-2.22.63-3.51.63s-2.48-.21-3.53-.63c-1.05-.42-1.94-1.03-2.68-1.81-.74-.79-1.31-1.74-1.71-2.86-.4-1.12-.6-2.38-.6-3.76s.2-2.64.6-3.75c.4-1.12.97-2.07,1.71-2.86.74-.79,1.63-1.4,2.68-1.82,1.05-.42,2.22-.63,3.53-.63Zm0,15.5c1.66,0,2.91-.56,3.73-1.68s1.23-2.7,1.23-4.73-.41-3.61-1.23-4.74c-.82-1.13-2.06-1.69-3.73-1.69s-2.94.56-3.77,1.69c-.83,1.13-1.24,2.71-1.24,4.74s.41,3.61,1.24,4.73,2.08,1.68,3.77,1.68Z"/>
      <path class="cls-2" d="m324.35,397.06c-.1.13-.21.23-.3.3-.1.08-.24.11-.42.11s-.38-.07-.58-.22c-.2-.14-.46-.3-.76-.47-.31-.17-.68-.32-1.11-.47-.43-.14-.97-.22-1.6-.22-.83,0-1.57.15-2.2.45-.64.3-1.17.73-1.59,1.28s-.74,1.23-.96,2.03c-.22.8-.33,1.69-.33,2.69s.12,1.94.35,2.75c.23.8.56,1.48.99,2.03.43.55.95.97,1.56,1.25.61.28,1.29.42,2.05.42s1.33-.09,1.8-.27c.47-.18.87-.37,1.18-.58.31-.21.57-.4.78-.58.21-.18.42-.27.64-.27.28,0,.49.1.64.31l.97,1.25c-.41.5-.86.92-1.36,1.27-.5.35-1.04.63-1.6.85-.57.22-1.16.38-1.78.49-.62.1-1.25.16-1.88.16-1.1,0-2.12-.2-3.08-.61s-1.78-.99-2.48-1.77-1.25-1.72-1.66-2.85c-.41-1.13-.61-2.41-.61-3.84,0-1.31.18-2.51.55-3.62.36-1.11.9-2.07,1.61-2.87.71-.8,1.59-1.43,2.63-1.89,1.04-.46,2.23-.69,3.57-.69,1.26,0,2.37.2,3.33.61.96.4,1.81.98,2.57,1.72l-.9,1.25Z"/>
      <path class="cls-2" d="m331.98,385.79v14.96h.8c.24,0,.44-.04.61-.1.16-.07.33-.21.5-.42l5.27-5.81c.16-.22.34-.38.54-.49.2-.11.44-.17.75-.17h3.08l-6.22,6.81c-.33.43-.69.76-1.07.99.22.15.41.32.58.52.17.2.33.41.49.64l6.62,8.65h-3.03c-.28,0-.52-.05-.72-.14s-.38-.26-.55-.5l-5.44-7.07c-.17-.27-.35-.44-.52-.51-.17-.08-.43-.11-.78-.11h-.9v8.34h-3.38v-25.58h3.38Z"/>
      <path class="cls-2" d="m350.61,388.32c0,.31-.06.61-.19.89s-.3.53-.51.75c-.21.21-.47.38-.75.5-.29.12-.59.18-.9.18s-.61-.06-.88-.18-.52-.29-.74-.5c-.21-.21-.38-.46-.5-.75-.12-.28-.18-.58-.18-.89s.06-.63.18-.91c.12-.28.29-.53.5-.75s.46-.38.74-.5c.28-.12.57-.18.88-.18s.61.06.9.18c.29.12.54.29.75.5s.38.46.51.75.19.59.19.91Zm-.64,5.44v17.61h-3.38v-17.61h3.38Z"/>
      <path class="cls-2" d="m358.04,396.21c.38-.4.78-.77,1.2-1.11.42-.33.86-.62,1.33-.86.47-.24.97-.42,1.51-.55s1.11-.2,1.72-.2c.97,0,1.82.16,2.56.49.73.32,1.35.78,1.85,1.36.5.58.87,1.29,1.13,2.11.25.82.38,1.73.38,2.72v11.21h-3.4v-11.21c0-1.26-.29-2.24-.87-2.94-.58-.7-1.46-1.05-2.65-1.05-.87,0-1.68.21-2.43.62s-1.46.97-2.11,1.67v12.91h-3.38v-17.61h2.03c.47,0,.77.23.88.68l.26,1.77Z"/>
      <path class="cls-2" d="m389.28,394.42v1.27c0,.42-.26.68-.78.78l-1.89.28c.16.36.29.74.38,1.14.09.4.14.82.14,1.26,0,.87-.17,1.65-.5,2.35s-.8,1.3-1.39,1.79c-.59.5-1.29.88-2.11,1.14-.81.27-1.71.4-2.68.4-.8,0-1.54-.09-2.24-.26-.35.21-.61.44-.79.69-.18.25-.27.49-.27.74,0,.4.17.71.51.9s.79.34,1.33.42c.55.09,1.18.14,1.89.16.71.02,1.43.06,2.17.11.73.05,1.46.14,2.17.28s1.34.35,1.89.64c.55.29.99.7,1.33,1.21.34.51.51,1.18.51,2,0,.76-.19,1.5-.56,2.22-.38.72-.92,1.35-1.64,1.91-.72.55-1.59,1-2.62,1.33-1.03.33-2.2.5-3.5.5s-2.44-.13-3.41-.38-1.77-.59-2.41-1.02c-.64-.43-1.12-.92-1.44-1.49-.32-.57-.48-1.16-.48-1.77,0-.86.27-1.58.8-2.17.53-.6,1.27-1.06,2.2-1.4-.51-.23-.91-.55-1.21-.95-.3-.4-.45-.93-.45-1.59,0-.25.05-.52.14-.79.09-.27.23-.54.42-.81.19-.27.43-.53.71-.77.28-.24.61-.46.98-.66-.87-.49-1.55-1.13-2.04-1.93-.5-.8-.75-1.74-.75-2.82,0-.87.17-1.65.5-2.34s.8-1.29,1.4-1.79c.59-.5,1.31-.88,2.13-1.14s1.73-.4,2.71-.4c1.53,0,2.84.32,3.93.95h4.89Zm-3.43,17.87c0-.42-.12-.75-.35-1s-.55-.44-.94-.59-.86-.25-1.4-.31-1.09-.11-1.67-.15c-.58-.03-1.18-.07-1.79-.09-.61-.03-1.2-.08-1.77-.17-.6.3-1.1.67-1.48,1.09-.39.43-.58.93-.58,1.51,0,.37.1.72.29,1.04.19.32.49.6.88.84.4.24.9.42,1.51.55.61.13,1.33.2,2.17.2s1.57-.07,2.2-.22c.64-.15,1.17-.35,1.6-.61.43-.26.76-.57.99-.93.23-.36.34-.75.34-1.18Zm-5.39-9.71c.6,0,1.13-.08,1.59-.24.46-.16.84-.39,1.14-.68.31-.29.54-.65.69-1.07.16-.42.23-.87.23-1.37,0-1.02-.31-1.83-.93-2.44-.62-.61-1.53-.91-2.73-.91s-2.09.3-2.71.91-.93,1.42-.93,2.44c0,.5.08.95.23,1.36s.39.76.69,1.06c.31.29.69.53,1.14.69.46.17.98.25,1.57.25Z"/>
      <path class="cls-2" d="m406.63,411.65c-1.42,0-2.52-.4-3.29-1.2-.77-.8-1.15-1.94-1.15-3.41v-10.54h-2.05c-.2,0-.36-.06-.49-.18-.13-.12-.2-.3-.2-.55v-1.37l2.86-.4.76-5.25c.05-.2.14-.35.27-.46.13-.11.3-.16.51-.16h1.72v5.91h4.99v2.46h-4.99v10.31c0,.69.17,1.21.51,1.55.34.34.78.51,1.31.51.31,0,.58-.04.81-.12s.42-.17.58-.27c.16-.1.3-.19.42-.27.12-.08.22-.12.31-.12.12,0,.21.03.27.08s.13.14.2.25l1.01,1.63c-.55.51-1.21.9-1.98,1.18-.76.28-1.55.42-2.37.42Z"/>
      <path class="cls-2" d="m417.05,396c.74-.75,1.56-1.36,2.45-1.82.9-.46,1.93-.69,3.09-.69.97,0,1.82.16,2.56.49.73.32,1.35.78,1.85,1.36.5.58.87,1.29,1.13,2.11.25.82.38,1.73.38,2.72v11.21h-3.4v-11.21c0-1.26-.29-2.24-.87-2.94-.58-.7-1.46-1.05-2.65-1.05-.87,0-1.68.21-2.44.62s-1.46.97-2.11,1.67v12.91h-3.38v-25.58h3.38v10.21Z"/>
      <path class="cls-2" d="m447.52,408.86c-.42.49-.9.9-1.44,1.26s-1.12.64-1.73.86-1.25.38-1.9.49c-.65.1-1.3.16-1.93.16-1.21,0-2.34-.21-3.37-.62s-1.93-1.01-2.69-1.8c-.76-.79-1.35-1.77-1.77-2.95s-.63-2.52-.63-4.05c0-1.22.19-2.37.57-3.42.38-1.06.93-1.98,1.64-2.76.71-.79,1.58-1.4,2.61-1.85,1.03-.45,2.18-.68,3.47-.68,1.07,0,2.07.18,2.97.53s1.69.86,2.35,1.53c.66.67,1.18,1.5,1.55,2.48.38.98.56,2.1.56,3.36,0,.52-.06.87-.17,1.05-.12.18-.33.27-.64.27h-11.54c.03,1.05.18,1.97.45,2.75.27.78.63,1.43,1.1,1.95.47.52,1.03.91,1.67,1.16.65.25,1.37.38,2.17.38.75,0,1.4-.09,1.95-.26.55-.17,1.02-.36,1.42-.56.4-.2.73-.39,1.01-.56.27-.17.51-.26.72-.26.28,0,.49.1.64.31l.97,1.25Zm-2.79-8.25c0-.67-.09-1.29-.29-1.86-.19-.57-.47-1.06-.84-1.47-.37-.42-.82-.74-1.35-.97-.53-.23-1.14-.35-1.84-.35-1.42,0-2.54.41-3.35,1.23s-1.33,1.96-1.55,3.42h9.22Z"/>
      <path class="cls-2" d="m492.97,386.48l-7.77,24.89h-3.33l-6.07-18.46c-.14-.37-.26-.81-.36-1.33-.13.53-.25.98-.36,1.33l-6.14,18.46h-3.31l-7.77-24.89h3.08c.32,0,.6.08.82.23.22.16.36.37.43.63l4.91,16.66c.09.32.18.68.25,1.06.08.38.15.78.23,1.2.08-.42.17-.81.25-1.2.09-.38.19-.73.3-1.06l5.62-16.66c.07-.23.22-.43.44-.61.23-.17.49-.26.81-.26h1.06c.32,0,.59.08.8.24.21.16.36.37.45.62l5.6,16.66c.21.64.39,1.36.55,2.17.14-.8.29-1.52.45-2.17l4.92-16.66c.06-.23.2-.43.43-.61.23-.17.5-.26.82-.26h2.88Z"/>
      <path class="cls-2" d="m501.32,393.48c1.29,0,2.46.21,3.51.63,1.04.42,1.93,1.03,2.67,1.82.73.79,1.3,1.75,1.69,2.86.39,1.12.59,2.37.59,3.75s-.2,2.64-.59,3.76c-.39,1.12-.96,2.07-1.69,2.86-.73.79-1.62,1.39-2.67,1.81-1.05.42-2.22.63-3.51.63s-2.48-.21-3.53-.63c-1.05-.42-1.94-1.03-2.68-1.81-.74-.79-1.31-1.74-1.71-2.86-.4-1.12-.6-2.38-.6-3.76s.2-2.64.6-3.75c.4-1.12.97-2.07,1.71-2.86.74-.79,1.63-1.4,2.68-1.82,1.05-.42,2.22-.63,3.53-.63Zm0,15.5c1.66,0,2.91-.56,3.73-1.68s1.23-2.7,1.23-4.73-.41-3.61-1.23-4.74c-.82-1.13-2.06-1.69-3.73-1.69s-2.94.56-3.77,1.69c-.83,1.13-1.24,2.71-1.24,4.74s.41,3.61,1.24,4.73,2.08,1.68,3.77,1.68Z"/>
      <path class="cls-2" d="m516.73,397.14c.57-1.16,1.25-2.06,2.04-2.72.8-.66,1.76-.99,2.88-.99.38,0,.74.04,1.08.13.34.09.64.22.89.39l-.23,2.55c-.08.31-.27.47-.57.47-.16,0-.4-.03-.73-.09s-.67-.1-1.04-.1c-.54,0-1.02.08-1.44.23-.42.16-.79.39-1.12.69-.33.31-.62.68-.88,1.13-.25.45-.49.95-.71,1.52v11.02h-3.38v-17.61h1.94c.37,0,.62.07.75.2s.23.37.29.7l.21,2.48Z"/>
      <path class="cls-2" d="m529.71,385.79v25.58h-3.4v-25.58h3.4Z"/>
      <path class="cls-2" d="m549.28,385.79v25.58h-2.05c-.47,0-.77-.23-.88-.68l-.29-2.03c-.75.89-1.6,1.6-2.56,2.14s-2.05.81-3.3.81c-1.01,0-1.92-.2-2.73-.59s-1.51-.97-2.09-1.72c-.58-.76-1.02-1.7-1.33-2.82-.31-1.12-.47-2.41-.47-3.87,0-1.31.17-2.52.52-3.64s.85-2.09,1.51-2.91c.66-.82,1.46-1.46,2.39-1.93.94-.47,1.99-.7,3.17-.7,1.06,0,1.97.17,2.71.52.75.35,1.41.84,2,1.47v-9.64h3.4Zm-3.4,12.24c-.55-.73-1.15-1.24-1.79-1.53-.64-.29-1.36-.43-2.16-.43-1.55,0-2.75.56-3.6,1.67-.85,1.12-1.27,2.74-1.27,4.88,0,1.12.1,2.08.29,2.87.19.79.47,1.44.83,1.94s.81.87,1.34,1.11c.53.24,1.13.36,1.8.36.98,0,1.83-.22,2.55-.66.72-.44,1.39-1.06,2.01-1.85v-8.35Z"/>
      <path class="cls-2" d="m556.32,384.82c.51.84.85,1.73,1.03,2.66.18.93.2,1.85.06,2.76-.14.91-.44,1.78-.9,2.62-.46.84-1.08,1.59-1.84,2.24l-1.04-.66c-.2-.13-.28-.28-.26-.46.02-.18.09-.32.19-.42.29-.35.54-.78.75-1.29.21-.51.36-1.07.42-1.68.07-.61.05-1.23-.07-1.88-.12-.65-.36-1.28-.73-1.91-.16-.27-.21-.5-.14-.71s.22-.36.45-.45l2.06-.81Z"/>
      <path class="cls-2" d="m571.07,396.8c-.09.15-.19.26-.29.32-.1.06-.24.1-.4.1-.19,0-.39-.06-.62-.19-.23-.13-.5-.27-.82-.42-.32-.15-.69-.29-1.12-.42-.43-.13-.94-.19-1.52-.19-.49,0-.93.06-1.33.18-.4.12-.74.29-1.01.5s-.49.47-.64.76c-.15.29-.23.61-.23.95,0,.44.13.8.39,1.09s.6.54,1.02.75.9.4,1.44.56c.54.17,1.09.34,1.65.53.56.19,1.11.4,1.65.63.54.24,1.02.53,1.44.88.42.35.76.78,1.02,1.27.26.5.39,1.1.39,1.82,0,.82-.15,1.58-.44,2.28-.29.7-.73,1.3-1.3,1.81-.57.51-1.28.91-2.12,1.2-.84.29-1.81.43-2.89.43-1.21,0-2.33-.2-3.36-.61s-1.89-.92-2.58-1.54l.8-1.3c.09-.16.21-.29.35-.37s.32-.13.55-.13.44.08.68.24c.23.16.51.34.83.53s.72.36,1.18.52c.46.16,1.04.23,1.73.23.58,0,1.08-.07,1.51-.22s.78-.34,1.07-.59c.28-.25.49-.53.63-.86.14-.32.21-.66.21-1.02,0-.46-.13-.85-.39-1.15-.26-.31-.6-.57-1.02-.79s-.9-.41-1.45-.57c-.54-.16-1.1-.33-1.66-.52s-1.12-.4-1.66-.64c-.54-.24-1.03-.55-1.45-.92-.42-.37-.76-.82-1.02-1.35s-.39-1.18-.39-1.94c0-.68.14-1.33.42-1.96s.69-1.17,1.23-1.65c.54-.47,1.2-.85,1.99-1.14.79-.28,1.7-.42,2.71-.42,1.17,0,2.22.19,3.16.55.94.37,1.75.88,2.42,1.53l-.75,1.23Z"/>
      <path class="cls-2" d="m592.74,386.48c1.59,0,2.98.18,4.16.55,1.18.37,2.15.89,2.93,1.57s1.35,1.49,1.72,2.45c.38.96.56,2.02.56,3.19s-.2,2.24-.61,3.22-1,1.82-1.79,2.52c-.79.7-1.77,1.25-2.94,1.64s-2.52.58-4.05.58h-3.85v9.17h-3.69v-24.89h7.54Zm0,12.81c.94,0,1.76-.12,2.47-.36.71-.24,1.31-.59,1.79-1.03.48-.45.84-.98,1.08-1.59.24-.62.36-1.3.36-2.05,0-1.51-.47-2.7-1.41-3.57-.94-.87-2.37-1.3-4.29-1.3h-3.85v9.92h3.85Z"/>
      <path class="cls-2" d="m612.1,393.48c1.29,0,2.46.21,3.51.63,1.04.42,1.93,1.03,2.67,1.82.73.79,1.3,1.75,1.69,2.86.39,1.12.59,2.37.59,3.75s-.2,2.64-.59,3.76c-.39,1.12-.96,2.07-1.69,2.86-.73.79-1.62,1.39-2.67,1.81-1.05.42-2.22.63-3.51.63s-2.48-.21-3.53-.63c-1.05-.42-1.94-1.03-2.68-1.81-.74-.79-1.31-1.74-1.71-2.86-.4-1.12-.6-2.38-.6-3.76s.2-2.64.6-3.75c.4-1.12.97-2.07,1.71-2.86.74-.79,1.63-1.4,2.68-1.82,1.05-.42,2.22-.63,3.53-.63Zm0,15.5c1.66,0,2.91-.56,3.73-1.68s1.23-2.7,1.23-4.73-.41-3.61-1.23-4.74c-.82-1.13-2.06-1.69-3.73-1.69s-2.94.56-3.77,1.69c-.83,1.13-1.24,2.71-1.24,4.74s.41,3.61,1.24,4.73,2.08,1.68,3.77,1.68Z"/>
      <path class="cls-2" d="m629.5,411.65c-1.42,0-2.52-.4-3.28-1.2-.77-.8-1.15-1.94-1.15-3.41v-10.54h-2.04c-.2,0-.36-.06-.49-.18-.13-.12-.2-.3-.2-.55v-1.37l2.86-.4.76-5.25c.05-.2.14-.35.27-.46.13-.11.3-.16.51-.16h1.72v5.91h4.99v2.46h-4.99v10.31c0,.69.17,1.21.51,1.55.34.34.78.51,1.31.51.31,0,.58-.04.81-.12.23-.08.42-.17.58-.27.16-.1.3-.19.42-.27s.22-.12.31-.12c.12,0,.21.03.27.08.06.05.13.14.2.25l1,1.63c-.55.51-1.21.9-1.98,1.18s-1.55.42-2.38.42Z"/>
      <path class="cls-2" d="m650.89,408.86c-.42.49-.9.9-1.44,1.26-.54.35-1.12.64-1.73.86-.61.22-1.25.38-1.9.49-.65.1-1.3.16-1.93.16-1.21,0-2.34-.21-3.37-.62s-1.93-1.01-2.69-1.8c-.76-.79-1.35-1.77-1.77-2.95s-.63-2.52-.63-4.05c0-1.22.19-2.37.57-3.42.38-1.06.93-1.98,1.64-2.76.71-.79,1.58-1.4,2.61-1.85,1.03-.45,2.18-.68,3.47-.68,1.08,0,2.07.18,2.97.53.91.35,1.69.86,2.35,1.53.66.67,1.18,1.5,1.55,2.48.38.98.56,2.1.56,3.36,0,.52-.06.87-.17,1.05-.12.18-.33.27-.64.27h-11.54c.03,1.05.18,1.97.45,2.75.27.78.63,1.43,1.1,1.95.47.52,1.03.91,1.67,1.16.65.25,1.37.38,2.17.38.75,0,1.4-.09,1.95-.26.55-.17,1.02-.36,1.42-.56s.73-.39,1-.56c.27-.17.51-.26.72-.26.28,0,.49.1.64.31l.97,1.25Zm-2.79-8.25c0-.67-.09-1.29-.29-1.86-.19-.57-.47-1.06-.84-1.47-.37-.42-.82-.74-1.35-.97-.53-.23-1.14-.35-1.84-.35-1.42,0-2.54.41-3.35,1.23s-1.33,1.96-1.55,3.42h9.22Z"/>
      <path class="cls-2" d="m657.96,396.21c.38-.4.78-.77,1.2-1.11.42-.33.86-.62,1.33-.86.47-.24.97-.42,1.51-.55.54-.13,1.11-.2,1.72-.2.97,0,1.82.16,2.56.49.73.32,1.35.78,1.85,1.36.5.58.87,1.29,1.13,2.11.25.82.38,1.73.38,2.72v11.21h-3.4v-11.21c0-1.26-.29-2.24-.87-2.94-.58-.7-1.46-1.05-2.65-1.05-.87,0-1.68.21-2.44.62s-1.46.97-2.11,1.67v12.91h-3.38v-17.61h2.03c.47,0,.77.23.88.68l.26,1.77Z"/>
      <path class="cls-2" d="m690.64,411.37h-3.4v-14.87h-8.84v10.31c0,.69.17,1.21.51,1.55.34.34.78.51,1.31.51.31,0,.58-.04.81-.12.23-.08.42-.17.58-.27.16-.1.3-.19.42-.27s.22-.12.31-.12c.12,0,.21.03.27.08.06.05.13.14.2.25l1,1.63c-.55.51-1.21.9-1.98,1.18s-1.55.42-2.38.42c-1.42,0-2.52-.4-3.28-1.2-.77-.8-1.15-1.94-1.15-3.41v-10.54h-2.04c-.2,0-.36-.06-.49-.18-.13-.12-.2-.3-.2-.55v-1.37l2.88-.4.75-5.25c.05-.2.14-.35.27-.46.13-.11.3-.16.51-.16h1.72v5.91h12.24v17.33Zm.76-23.16c0,.31-.06.61-.19.89s-.3.53-.51.75c-.21.21-.47.38-.75.5-.29.12-.59.18-.9.18s-.61-.06-.88-.18c-.28-.12-.52-.29-.74-.5s-.38-.46-.5-.75-.18-.58-.18-.89.06-.63.18-.92.29-.54.5-.75.46-.38.74-.5.57-.18.88-.18.61.06.9.18c.29.12.54.29.75.5.21.21.38.46.51.75s.19.59.19.92Z"/>
      <path class="cls-2" d="m695.09,396.22c.98-.94,2.05-1.63,3.2-2.1,1.15-.46,2.41-.69,3.79-.69,1.01,0,1.9.17,2.67.49.77.33,1.43.79,1.96,1.38.53.59.93,1.29,1.21,2.12s.41,1.73.41,2.72v11.23h-1.51c-.33,0-.59-.05-.76-.17-.17-.11-.31-.31-.42-.62l-.36-1.54c-.45.42-.9.78-1.33,1.1-.44.32-.9.59-1.38.81s-.99.4-1.53.51c-.54.12-1.14.17-1.8.17-.69,0-1.34-.1-1.95-.29s-1.14-.48-1.59-.88c-.45-.39-.81-.88-1.07-1.47-.26-.59-.39-1.28-.39-2.06,0-.69.19-1.36.56-2,.38-.64.99-1.22,1.84-1.72s1.96-.92,3.33-1.25,3.05-.51,5.05-.55v-1.28c0-1.33-.28-2.32-.85-2.98-.57-.66-1.4-.99-2.5-.99-.74,0-1.36.09-1.86.28-.5.18-.94.39-1.3.62-.36.22-.68.43-.95.62s-.55.28-.84.28c-.23,0-.43-.06-.6-.19-.17-.13-.3-.28-.41-.45l-.61-1.09Zm9.92,7.33c-1.38.05-2.54.15-3.5.32-.96.17-1.74.39-2.34.67s-1.03.6-1.3.98c-.27.38-.4.79-.4,1.26s.07.82.22,1.14c.14.32.34.58.59.78.25.2.54.35.88.44.33.09.7.14,1.09.14.52,0,1-.05,1.43-.16.43-.1.84-.25,1.22-.44.38-.19.75-.42,1.09-.7s.69-.59,1.02-.95v-3.47Z"/>
      <path class="cls-2" d="m716.33,385.79v25.58h-3.4v-25.58h3.4Z"/>
    </g>
    <g>
      <path class="cls-2" d="m477.96,229.43c62.31,0,124.62,0,186.94,0,6.61,0,7.92,1.33,7.97,7.99.01,2.15.05,4.3-.02,6.45-.14,4.7-1.89,6.42-6.6,6.54-8.82.22-17.66.21-26.47.69-17.65.95-34.6,5.47-51.32,10.84-20.79,6.68-41.53,13.44-63.23,16.73-22.15,3.35-44.37,4.03-66.73,2.79-29.33-1.63-57.46-8.66-85.25-17.61-17.27-5.56-34.71-10.66-52.86-12.3-9.72-.88-19.53-.85-29.31-1.08-6.56-.16-7.97-1.46-7.99-8.03,0-2.03-.03-4.06-.01-6.09.05-5.17,1.74-6.91,6.87-6.93,13.85-.03,27.69-.02,41.54-.02,48.82,0,97.65,0,146.47,0v.03Z"/>
      <path class="cls-1" d="m477.86,65.8c-4.55-.07-8.21-3.71-8.34-8.22v-.04s.16-1.84.16-1.84l3.28-50.74c.04-2.77,2.31-4.99,5.09-4.96,2.77.04,4.99,2.32,4.95,5.09l3.38,51.21.06,1.15c-.07,4.67-3.91,8.41-8.58,8.34Z"/>
      <path class="cls-1" d="m431.91,73.94c-4.3,1.49-8.98-.68-10.65-4.87v-.04s-.5-1.78-.5-1.78l-14.27-48.8c-.91-2.62.47-5.48,3.09-6.4,2.62-.91,5.48.48,6.39,3.09l20.69,46.97.45,1.06c1.54,4.41-.8,9.24-5.21,10.77Z"/>
      <path class="cls-1" d="m391.51,97.31c-3.53,2.87-8.67,2.43-11.67-.94l-.03-.03-1.06-1.51-30.1-40.98c-1.75-2.15-1.43-5.31.72-7.07,2.15-1.75,5.31-1.43,7.06.72l35.51,37.06.78.84c2.95,3.62,2.41,8.95-1.21,11.91Z"/>
      <path class="cls-1" d="m361.55,133.09c-2.33,3.91-7.32,5.25-11.29,3.11l-.03-.02-1.52-1.06-42.3-28.21c-2.38-1.42-3.16-4.5-1.75-6.89,1.42-2.38,4.51-3.16,6.89-1.74l46.04,22.68,1.02.52c4.01,2.39,5.33,7.59,2.94,11.6Z"/>
      <path class="cls-1" d="m345.62,176.96c-.86,4.47-5.08,7.44-9.54,6.79h-.04s-1.79-.48-1.79-.48l-49.4-12.04c-2.72-.52-4.51-3.14-4-5.88.52-2.72,3.15-4.51,5.88-3.99l51.02,5.56,1.14.14c4.59.88,7.6,5.31,6.73,9.9Z"/>
      <path class="cls-1" d="m523.83,73.86c-4.25-1.62-6.44-6.29-5.03-10.58v-.04s.79-1.68.79-1.68l20.44-46.56c.98-2.59,3.88-3.89,6.48-2.92,2.59.98,3.89,3.89,2.91,6.48l-14.34,49.28-.34,1.1c-1.66,4.37-6.55,6.56-10.92,4.91Z"/>
      <path class="cls-1" d="m564.27,97.16c-3.44-2.98-3.9-8.12-1.11-11.66l.03-.03,1.3-1.31,35.13-36.76c1.81-2.1,4.98-2.33,7.09-.52,2.1,1.81,2.33,4.99.52,7.08l-30.33,41.4-.69.92c-3.05,3.54-8.4,3.93-11.93.88Z"/>
      <path class="cls-1" d="m594.3,132.88c-2.22-3.97-.89-8.96,2.95-11.33l.03-.02,1.67-.78,45.58-22.53c2.42-1.35,5.48-.49,6.84,1.93,1.35,2.42.48,5.48-1.94,6.83l-42.66,28.53-.97.63c-4.08,2.28-9.24.82-11.51-3.26Z"/>
      <path class="cls-1" d="m610.3,176.72c-.72-4.49,2.23-8.73,6.65-9.64h.04s1.84-.17,1.84-.17l50.54-5.58c2.74-.44,5.31,1.41,5.77,4.16.44,2.74-1.42,5.31-4.16,5.76l-49.84,12.22-1.12.26c-4.61.75-8.96-2.39-9.71-7Z"/>
      <path class="cls-1" d="m593.22,202.91c0,3.63-.17,7.21-.5,10.75h-229.02c-.33-3.54-.5-7.12-.5-10.75,0-63.52,51.49-115.01,115.01-115.01s115.01,51.49,115.01,115.01Z"/>
    </g>
  </g>
</svg>